<?xml version="1.0" encoding="UTF-8"?>
<!DOCTYPE svg PUBLIC "-//W3C//DTD SVG 1.1//EN" "http://www.w3.org/Graphics/SVG/1.1/DTD/svg11.dtd">
<!-- Creator: CorelDRAW X6 -->
<svg xmlns="http://www.w3.org/2000/svg" xml:space="preserve" width="64mm" height="63.9995mm" version="1.1" style="shape-rendering:geometricPrecision; text-rendering:geometricPrecision; image-rendering:optimizeQuality; fill-rule:evenodd; clip-rule:evenodd"
viewBox="0 0 55805 55805"
 xmlns:xlink="http://www.w3.org/1999/xlink">
 <defs>
  <style type="text/css">
   <![CDATA[
    .fil0 {fill:#FF4521}
   ]]>
  </style>
 </defs>
 <g id="Слой_x0020_1">
  <metadata id="CorelCorpID_0Corel-Layer"/>
  <path class="fil0" d="M52421 44897c0,-70 0,-105 -17,-157 -1430,-977 -9403,-6230 -10885,-7172 -157,-17 -558,35 -1134,349 -593,314 -2372,1291 -4832,2705 0,0 -1936,1100 -1936,1100 0,0 -1814,-1274 -1814,-1274 -1343,-942 -4274,-3194 -8722,-7643 -4483,-4468 -6734,-7382 -7676,-8726 0,0 -1273,-1797 -1273,-1797 0,0 1099,-1920 1099,-1920 1064,-1867 2337,-4118 2721,-4834 314,-593 331,-995 331,-1099 0,-18 0,-35 0,-52 -837,-1326 -6245,-9459 -7239,-10890 -140,-17 -436,0 -820,262 -3070,2216 -6262,5340 -6716,6562 296,6544 6053,15689 16223,25828 10153,10139 19329,15881 25853,16177 1239,-436 4396,-3630 6594,-6666 157,-227 244,-506 244,-750m3384 0c0,908 -279,1885 -872,2740 -70,87 -5914,8272 -9298,8167 -9507,-314 -20672,-9528 -28382,-17207 -7693,-7678 -16939,-18830 -17253,-28341 0,0 0,-87 0,-87 0,-3333 8112,-9197 8199,-9249 2198,-1536 4623,-977 5600,419 611,855 6821,10174 7519,11326 297,488 454,1100 454,1762 0,855 -244,1798 -733,2705 -471,908 -2024,3630 -2791,4956 837,1169 2948,3909 7292,8254 4309,4311 7100,6422 8286,7260 1326,-768 4047,-2304 4937,-2775 1692,-890 3384,-995 4518,-262 1081,681 10344,6841 11234,7486 837,594 1291,1675 1291,2845 0,0 0,0 0,0z" fillRule="evenodd"/>
 </g>
</svg>
