<?xml version="1.0" encoding="UTF-8"?>
<!DOCTYPE svg PUBLIC "-//W3C//DTD SVG 1.1//EN" "http://www.w3.org/Graphics/SVG/1.1/DTD/svg11.dtd">
<!-- Creator: CorelDRAW X6 -->
<svg xmlns="http://www.w3.org/2000/svg" xml:space="preserve" width="64mm" height="43.9996mm" version="1.1" style="shape-rendering:geometricPrecision; text-rendering:geometricPrecision; image-rendering:optimizeQuality; fill-rule:evenodd; clip-rule:evenodd"
viewBox="0 0 68076 46802"
 xmlns:xlink="http://www.w3.org/1999/xlink">
 <defs>
  <style type="text/css">
   <![CDATA[
    .fil0 {fill:#FF4521}
   ]]>
  </style>
 </defs>
 <g id="Слой_x0020_1">
  <metadata id="CorelCorpID_0Corel-Layer"/>
  <path class="fil0" d="M68076 39356c0,3510 -1787,7446 -5318,7446 0,0 -55312,0 -55312,0 -3531,0 -7446,-3935 -7446,-7446 0,0 0,-34038 0,-34038 0,-192 43,-319 64,-489 -106,-617 21,-1276 447,-1787 85,-85 192,-128 277,-213 1319,-1872 4085,-2829 6659,-2829 0,0 55312,0 55312,0 2914,0 4616,1234 5127,3637 149,362 192,723 149,1085 21,191 43,383 43,596 0,0 0,34038 0,34038zm-60630 3191c0,0 55312,0 55312,0 1170,0 1063,-2021 1063,-3191 0,0 0,-30485 0,-30485 0,0 -28400,22699 -28400,22699 -383,361 -894,532 -1383,532 -489,0 -1000,-170 -1383,-532 0,0 -28400,-22699 -28400,-22699 0,0 0,30485 0,30485 0,1170 2021,3191 3191,3191zm54248 -38293c0,0 -54248,0 -54248,0 -596,0 -1382,-43 -2042,85 0,0 28634,22827 28634,22827 0,0 28741,-22912 28741,-22912 0,0 0,0 -21,0 0,0 -1064,0 -1064,0z" fillRule="evenodd"/>
 </g>
</svg>
