<?xml version="1.0" encoding="UTF-8"?>
<!DOCTYPE svg PUBLIC "-//W3C//DTD SVG 1.1//EN" "http://www.w3.org/Graphics/SVG/1.1/DTD/svg11.dtd">
<!-- Creator: CorelDRAW X6 -->
<svg xmlns="http://www.w3.org/2000/svg" xml:space="preserve" width="64mm" height="64mm" version="1.1" style="shape-rendering:geometricPrecision; text-rendering:geometricPrecision; image-rendering:optimizeQuality; fill-rule:evenodd; clip-rule:evenodd"
viewBox="0 0 30510 30510"
 xmlns:xlink="http://www.w3.org/1999/xlink">
 <defs>
  <style type="text/css">
   <![CDATA[
    .fil0 {fill:#FF4521}
   ]]>
  </style>
 </defs>
 <g id="Слой_x0020_1">
  <metadata id="CorelCorpID_0Corel-Layer"/>
  <path class="fil0" d="M29833 30443c-76,0 -162,-9 -238,-29 0,0 -9573,-3764 -9573,-3764 0,0 -9496,3859 -9496,3859 0,0 -9611,-3792 -9611,-3792 -505,-143 -915,-688 -915,-1213 0,0 0,-24779 0,-24779 0,-439 286,-726 677,-726 76,0 162,10 238,29 0,0 9592,3773 9592,3773 0,0 9525,-3773 9525,-3773 0,0 9563,3974 9563,3974 505,143 915,688 915,1213 0,0 0,24502 0,24502 0,439 -286,726 -677,726zm-20299 -25056c0,0 -7627,-2827 -7627,-2827 0,0 0,22448 0,22448 0,0 7627,3114 7627,3114 0,0 0,-22735 0,-22735zm1907 22754c0,0 7628,-3028 7628,-3028 0,0 0,-22725 0,-22725 0,0 -7628,2990 -7628,2990 0,0 0,22763 0,22763zm17162 -22429c0,0 -7627,-3296 -7627,-3296 0,0 0,22677 0,22677 0,0 7627,2875 7627,2875 0,0 0,-22257 0,-22257z" fillRule="evenodd"/>
 </g>
</svg>
