<?xml version="1.0" encoding="UTF-8"?>
<!DOCTYPE svg PUBLIC "-//W3C//DTD SVG 1.1//EN" "http://www.w3.org/Graphics/SVG/1.1/DTD/svg11.dtd">
<!-- Creator: CorelDRAW X6 -->
<svg xmlns="http://www.w3.org/2000/svg" xml:space="preserve" width="63.998mm" height="64.0045mm" version="1.1" style="shape-rendering:geometricPrecision; text-rendering:geometricPrecision; image-rendering:optimizeQuality; fill-rule:evenodd; clip-rule:evenodd"
viewBox="0 0 815 815"
 xmlns:xlink="http://www.w3.org/1999/xlink"
 enable-background="new 0 0 1000 1000">
 <defs>
  <style type="text/css">
   <![CDATA[
    .fil0 {fill:#D7D7D7}
   ]]>
  </style>
 </defs>
 <g id="Слой_x0020_1">
  <metadata id="CorelCorpID_0Corel-Layer"/>
  <g id="_163334216">
   <g>
    <path class="fil0" d="M0 153l0 590c0,56 23,72 79,72l583 0 0 -102 -51 0 0 51 -560 0 0 -561 51 0 0 -51 -102 0 0 0zm764 459l-561 0 0 -560 153 0 0 -51 -139 0c-44,0 -64,21 -64,64l0 539c0,44 21,59 64,59l533 0c44,0 65,-15 65,-59l0 -145 -51 0 0 95 0 58 0 0zm51 -611l0 357 -51 0 0 -265 -367 367 -41 -41 367 -367 -265 0 0 -51 357 0z"/>
   </g>
  </g>
 </g>
</svg>
